HIERARCHY
ROOT reference
{
  OFFSET 0 0 0
  CHANNELS 6 Xposition Yposition Zposition Zrotation Xrotation Yrotation
  JOINT Hips
  {
    OFFSET -16.5314 84.0534 123.771
    CHANNELS 6 Xposition Yposition Zposition Zrotation Xrotation Yrotation
    JOINT Spine
    {
      OFFSET 0 7.59534 0
      CHANNELS 6 Xposition Yposition Zposition Zrotation Xrotation Yrotation
      JOINT Spine1
      {
        OFFSET 0 23.5015 0
        CHANNELS 6 Xposition Yposition Zposition Zrotation Xrotation Yrotation
        JOINT Neck
        {
          OFFSET 0 23.405 2.12773
          CHANNELS 6 Xposition Yposition Zposition Zrotation Xrotation Yrotation
          JOINT Head
          {
            OFFSET 0 12.9677 -1.85252
            CHANNELS 6 Xposition Yposition Zposition Zrotation Xrotation Yrotation
            End Site
            {
              OFFSET 0 23.1565 0
            }
          }
        }
        JOINT LeftShoulder
        {
          OFFSET 3.62206 22.4732 -0.132728
          CHANNELS 6 Xposition Yposition Zposition Zrotation Xrotation Yrotation
          JOINT LeftArm
          {
            OFFSET 8.17784 0 0
            CHANNELS 6 Xposition Yposition Zposition Zrotation Xrotation Yrotation
            JOINT LeftForeArm
            {
              OFFSET 30.104 0 0
              CHANNELS 6 Xposition Yposition Zposition Zrotation Xrotation Yrotation
              JOINT LeftHand
              {
                OFFSET 24.4664 0 0
                CHANNELS 6 Xposition Yposition Zposition Zrotation Xrotation Yrotation
                End Site
                {
                  OFFSET 13.8939 0 0
                }
              }
            }
          }
        }
        JOINT RightShoulder
        {
          OFFSET -3.6336 22.4732 -0.132728
          CHANNELS 6 Xposition Yposition Zposition Zrotation Xrotation Yrotation
          JOINT RightArm
          {
            OFFSET -8.17784 0 0
            CHANNELS 6 Xposition Yposition Zposition Zrotation Xrotation Yrotation
            JOINT RightForeArm
            {
              OFFSET -30.104 0 0
              CHANNELS 6 Xposition Yposition Zposition Zrotation Xrotation Yrotation
              JOINT RightHand
              {
                OFFSET -24.4664 0 0
                CHANNELS 6 Xposition Yposition Zposition Zrotation Xrotation Yrotation
                End Site
                {
                  OFFSET -13.8939 0 0
                }
              }
            }
          }
        }
      }
    }
    JOINT LeftUpLeg
    {
      OFFSET 9.26261 0 0
      CHANNELS 6 Xposition Yposition Zposition Zrotation Xrotation Yrotation
      JOINT LeftLeg
      {
        OFFSET 0 -35.4897 0
        CHANNELS 6 Xposition Yposition Zposition Zrotation Xrotation Yrotation
        JOINT LeftFoot
        {
          OFFSET 0 -38.2023 0
          CHANNELS 6 Xposition Yposition Zposition Zrotation Xrotation Yrotation
          JOINT LeftToeBase
          {
            OFFSET 0 -6.0207 13.8939
            CHANNELS 6 Xposition Yposition Zposition Zrotation Xrotation Yrotation
            End Site
            {
              OFFSET 0 0 3.70504
            }
          }
        }
      }
    }
    JOINT RightUpLeg
    {
      OFFSET -9.26261 0 0
      CHANNELS 6 Xposition Yposition Zposition Zrotation Xrotation Yrotation
      JOINT RightLeg
      {
        OFFSET 0 -35.4897 0
        CHANNELS 6 Xposition Yposition Zposition Zrotation Xrotation Yrotation
        JOINT RightFoot
        {
          OFFSET 0 -38.2023 0
          CHANNELS 6 Xposition Yposition Zposition Zrotation Xrotation Yrotation
          JOINT RightToeBase
          {
            OFFSET 0 -6.0207 13.8939
            CHANNELS 6 Xposition Yposition Zposition Zrotation Xrotation Yrotation
            End Site
            {
              OFFSET 0 0 3.70504
            }
          }
        }
      }
    }
  }
}
MOTION
Frames:	9
Frame Time:	0.004
0 0 0 0 0 -0 -17.0697 76.4077 -145.551 1.80102 7.63465 -8.50978 0 7.59534 -2.84217e-014 -1.37061 3.4029 2.11368 0 23.5015 2.84217e-014 -1.83734 -0.08282 2.07158 0 23.405 2.12773 -4.64124 27.3088 -8.26902 0 12.9677 -1.85252 6.15663 0.262486 -8.25042 3.62206 22.4732 -0.132728 -11.2459 10.5319 17.292 8.17784 2.84217e-014 0 -40.9599 47.6889 -2.15498 30.104 -1.42109e-014 0 4.51644 -17.8043 -16.3587 24.4664 -1.42109e-014 0 3.80156 -17.2804 -3.00446 -3.6336 22.4732 -0.132728 -0.812887 27.5376 23.3989 -8.17784 -1.42109e-014 -2.84217e-014 35.621 32.0984 4.84611 -30.104 0 2.84217e-014 -21.3551 -13.1459 47.8688 -24.4664 7.10543e-015 1.42109e-014 13.7132 -3.38244 2.20564 9.26261 -1.42109e-014 -2.84217e-014 8.62745 -26.0213 5.86392 0 -35.4897 -1.42109e-014 -12.6089 19.8392 2.2864 -3.55271e-015 -38.2023 0 2.48914 -11.6917 18.0417 0 -6.0207 13.8939 0 0 -1.59028e-015 -9.26261 0 0 -0.207664 -8.17949 6.06552 0 -35.4897 2.84217e-014 -1.31908 23.1917 -0.988251 0 -38.2023 0 -2.21256 -13.7401 0.946951 0 -6.0207 13.8939 5.46658e-016 1.59028e-015 -1.98785e-016 
0 0 0 0 0 -0 -17.0203 76.4458 -145.188 1.79719 7.79381 -8.76202 0 7.59534 2.84217e-014 -1.35845 3.46729 2.17654 0 23.5015 2.84217e-014 -1.93953 -0.121841 2.1333 0 23.405 2.12773 -4.5681 27.4552 -8.22102 0 12.9677 -1.85252 6.22098 -0.217473 -8.16448 3.62206 22.4732 -0.132728 -10.8214 10.3275 17.6375 8.17784 -7.10543e-015 2.84217e-014 -41.5188 47.5525 -1.05641 30.104 0 0 4.41687 -18.0189 -15.9853 24.4664 7.10543e-015 0 3.63135 -17.5269 -3.26329 -3.6336 22.4732 -0.132728 -0.903954 27.421 23.1241 -8.17784 -2.84217e-014 0 35.809 32.2133 4.28014 -30.104 0 2.84217e-014 -21.3977 -13.09 48.4042 -24.4664 0 0 14.1889 -3.15268 2.37806 9.26261 7.10543e-015 2.84217e-014 8.684 -26.1145 5.93039 -1.77636e-015 -35.4897 0 -12.0293 19.2011 1.97579 -3.55271e-015 -38.2023 0 1.95912 -11.0793 17.7381 3.55271e-015 -6.0207 13.8939 0 0 -0 -9.26261 -7.10543e-015 0 -0.231595 -8.44188 5.93593 0 -35.4897 -2.84217e-014 -1.25755 23.7566 -1.24573 0 -38.2023 -2.84217e-014 -2.09664 -13.4691 1.30526 -3.55271e-015 -6.0207 13.8939 -7.45443e-016 0 -0 
0 0 0 0 0 -0 -16.9709 76.484 -144.832 1.78232 7.95878 -9.051 0 7.59534 0 -1.37119 3.54795 2.2387 -7.10543e-015 23.5015 0 -1.99547 -0.178196 2.19306 7.10543e-015 23.405 2.12773 -4.57653 27.56 -8.11931 0 12.9677 -1.85252 6.38933 -0.605841 -8.01865 3.62206 22.4732 -0.132728 -10.4106 10.175 17.9949 8.17784 2.13163e-014 0 -41.9846 46.6987 -0.052462 30.104 0 -5.68434e-014 4.12814 -17.6934 -15.6887 24.4664 0 0 3.3278 -17.2457 -3.41873 -3.6336 22.4732 -0.132728 -1.01474 27.2032 22.8936 -8.17784 0 0 36.0936 32.3146 3.63536 -30.104 -1.42109e-014 0 -21.2057 -13.0327 49.1152 -24.4664 7.10543e-015 0 13.9226 -3.06251 2.09605 9.26261 0 -2.84217e-014 8.7421 -26.1746 6.05007 0 -35.4897 -1.42109e-014 -11.4491 18.546 1.68723 0 -38.2023 0 1.15687 -10.6358 17.5796 0 -6.0207 13.8939 3.97569e-016 -1.59028e-015 -1.59028e-015 -9.26261 0 -2.84217e-014 -0.22944 -8.84218 5.7365 -7.10543e-015 -35.4897 0 -1.24605 24.4944 -1.22421 7.10543e-015 -38.2023 0 -1.88307 -13.0089 1.55145 0 -6.0207 13.8939 -1.49089e-016 1.59028e-015 -7.95139e-016 
0 0 0 0 0 -0 -16.9331 76.5167 -144.495 1.73621 8.11233 -9.33259 0 7.59534 0 -1.39966 3.68938 2.31564 0 23.5015 0 -1.99103 -0.287098 2.26555 0 23.405 2.12773 -4.56228 27.6668 -8.03067 0 12.9677 -1.85252 6.51923 -0.958281 -7.89073 3.62206 22.4732 -0.132728 -10.0186 9.93557 18.2295 8.17784 -7.10543e-015 -2.84217e-014 -42.5399 46.1156 1.0977 30.104 0 -2.84217e-014 3.92684 -17.5461 -15.3164 24.4664 1.42109e-014 0 3.02329 -17.1329 -3.59725 -3.6336 22.4732 -0.132728 -1.09605 27.018 22.6007 -8.17784 -1.42109e-014 0 36.365 32.4588 2.99172 -30.104 0 -2.84217e-014 -21.1013 -13.0976 49.7751 -24.4664 -1.42109e-014 0 13.9932 -3.05907 1.83879 9.26261 0 0 8.86413 -26.2326 6.18196 3.55271e-015 -35.4897 1.42109e-014 -10.9293 18.0146 1.17315 -3.55271e-015 -38.2023 0 0.497358 -10.3775 17.6056 0 -6.0207 13.8939 -7.95139e-016 1.59028e-015 -1.59028e-015 -9.26261 7.10543e-015 2.84217e-014 -0.15908 -9.3245 5.36255 0 -35.4897 -2.84217e-014 -1.36985 25.35 -1.34201 7.10543e-015 -38.2023 -2.84217e-014 -1.61594 -12.492 2.19841 0 -6.0207 13.8939 -1.10348e-032 1.59028e-015 3.97569e-016 
0 0 0 0 0 -0 -16.8907 76.5491 -144.182 1.68135 8.32424 -9.55679 0 7.59534 0 -1.39591 3.80201 2.34284 0 23.5015 0 -1.99406 -0.384291 2.28978 0 23.405 2.12773 -4.61398 27.6941 -7.9137 0 12.9677 -1.85252 6.68115 -1.24898 -7.73484 3.62206 22.4732 -0.132728 -9.68933 9.97582 18.5767 8.17784 7.10543e-015 0 -42.8121 45.4918 1.87941 30.104 2.84217e-014 0 3.65818 -17.4294 -15.0908 24.4664 1.42109e-014 0 2.90197 -17.0568 -3.71759 -3.6336 22.4732 -0.132728 -1.20607 26.9108 22.4287 -8.17784 0 2.84217e-014 36.6233 32.4788 2.3148 -30.104 0 0 -21.1491 -13.0464 50.3234 -24.4664 7.10543e-015 0 14.2435 -2.83349 2.00127 9.26261 2.84217e-014 -2.84217e-014 8.97597 -26.396 6.28886 0 -35.4897 0 -10.4578 17.5607 0.909241 0 -38.2023 -2.84217e-014 -0.291025 -10.2416 17.5219 -3.55271e-015 -6.0207 13.8939 7.95139e-016 0 -1.59028e-015 -9.26261 1.42109e-014 -2.84217e-014 -0.118991 -10.0233 4.50903 0 -35.4897 0 -1.62739 26.4394 -1.00068 0 -38.2023 -2.84217e-014 -1.49881 -11.9013 2.88871 0 -6.0207 13.8939 -5.96354e-016 -1.59028e-015 7.95139e-016 
0 0 0 0 0 -0 -16.8354 76.5838 -143.827 1.64015 8.44072 -9.95463 0 7.59534 -2.84217e-014 -1.40166 3.95589 2.4454 -7.10543e-015 23.5015 0 -2.04984 -0.398175 2.38983 0 23.405 2.12773 -4.68497 27.7255 -7.79772 0 12.9677 -1.85252 6.90444 -1.55057 -7.5714 3.62206 22.4732 -0.132728 -9.2382 9.72379 18.8856 8.17784 -1.42109e-014 -2.84217e-014 -43.3019 45.1427 2.94542 30.104 0 0 3.3857 -17.3565 -14.7928 24.4664 1.42109e-014 0 2.63127 -17.0236 -3.95468 -3.6336 22.4732 -0.132728 -1.29431 26.7297 22.1868 -8.17784 0 0 36.8931 32.5448 1.68672 -30.104 0 0 -21.0777 -12.986 50.9344 -24.4664 1.42109e-014 0 14.1332 -2.69503 1.78679 9.26261 -7.10543e-015 0 9.10801 -26.3173 6.47794 -1.77636e-015 -35.4897 -1.42109e-014 -10.0095 16.9675 0.734518 0 -38.2023 0 -0.637562 -10.0872 17.2448 0 -6.0207 13.8939 0 0 -0 -9.26261 -7.10543e-015 0 -0.117258 -10.5585 4.68267 0 -35.4897 0 -1.43462 27.4193 -1.74874 0 -38.2023 0 -1.36972 -11.3283 3.70462 0 -6.0207 13.8939 -9.93923e-017 0 3.97569e-016 
0 0 0 0 0 -0 -16.778 76.613 -143.49 1.61487 8.52972 -10.3145 0 7.59534 2.84217e-014 -1.52132 4.16837 2.54586 -7.10543e-015 23.5015 0 -1.9043 -0.44286 2.4831 0 23.405 2.12773 -4.81728 27.9004 -7.74597 0 12.9677 -1.85252 7.08678 -2.06866 -7.48109 3.62206 22.4732 -0.132728 -8.9702 9.5656 19.0404 8.17784 1.42109e-014 0 -43.7289 44.8194 3.96812 30.104 -1.42109e-014 0 3.2265 -17.2088 -14.2609 24.4664 0 0 1.87796 -16.8945 -4.5493 -3.6336 22.4732 -0.132728 -1.52889 26.6012 21.9453 -8.17784 2.84217e-014 0 37.14 32.3552 1.15273 -30.104 0 -2.84217e-014 -20.7257 -12.803 51.5765 -24.4664 0 1.42109e-014 13.6403 -2.55756 1.67697 9.26261 -7.10543e-015 2.84217e-014 9.20138 -26.2369 6.60479 -1.77636e-015 -35.4897 -1.42109e-014 -9.58218 16.5075 0.068044 3.55271e-015 -38.2023 1.42109e-014 -0.943084 -10.1318 17.5055 0 -6.0207 13.8939 -1.98785e-016 -1.59028e-015 1.59028e-015 -9.26261 -7.10543e-015 2.84217e-014 -0.077222 -11.2346 4.41735 7.10543e-015 -35.4897 0 -1.55505 28.6817 -1.9917 7.10543e-015 -38.2023 -2.84217e-014 -1.2454 -10.6402 4.43492 -7.10543e-015 -6.0207 13.8939 3.97569e-016 -3.18055e-015 -7.95139e-016 
0 0 0 0 0 -0 -16.7351 76.6267 -143.212 1.52507 8.81529 -10.6172 -7.10543e-015 7.59534 2.84217e-014 -1.50076 4.25891 2.57872 0 23.5015 0 -1.89447 -0.518393 2.51428 7.10543e-015 23.405 2.12773 -4.87792 27.9359 -7.62239 0 12.9677 -1.85252 7.25278 -2.38279 -7.31486 3.62206 22.4732 -0.132728 -8.61463 9.53211 19.1982 8.17784 7.10543e-015 0 -44.1855 44.2288 4.99479 30.104 0 0 2.95655 -16.9773 -13.962 24.4664 0 0 1.38945 -16.6889 -4.97902 -3.6336 22.4732 -0.132728 -1.67578 26.4572 21.7709 -8.17784 -1.42109e-014 0 37.4102 32.2561 0.614425 -30.104 -1.42109e-014 0 -20.5319 -12.7346 52.0885 -24.4664 -1.42109e-014 0 13.4701 -2.47312 1.66756 9.26261 0 0 9.46199 -26.4777 6.77364 -3.55271e-015 -35.4897 0 -9.27932 16.2014 -0.295417 -3.55271e-015 -38.2023 -1.42109e-014 -0.937416 -9.98284 17.5461 3.55271e-015 -6.0207 13.8939 3.97569e-016 3.18055e-015 -1.59028e-015 -9.26261 0 2.84217e-014 0.063514 -12.2619 3.89427 0 -35.4897 0 -1.78269 30.1368 -2.02293 0 -38.2023 2.84217e-014 -1.22448 -9.8201 5.22486 -7.10543e-015 -6.0207 13.8939 -5.96354e-016 6.36111e-015 -1.19271e-015 
0 0 0 0 0 -0 -16.6542 76.6549 -142.855 1.57083 8.72152 -11.0579 0 7.59534 2.84217e-014 -1.66954 4.62211 2.67671 -7.10543e-015 23.5015 -2.84217e-014 -1.8832 -0.473892 2.60148 0 23.405 2.12773 -4.95773 27.8667 -7.49709 0 12.9677 -1.85252 7.39715 -2.6363 -7.15033 3.62206 22.4732 -0.132728 -8.28371 9.29513 19.3157 8.17784 -7.10543e-015 0 -44.7105 43.9745 6.10624 30.104 0 0 2.68789 -16.9064 -13.5641 24.4664 7.10543e-015 2.84217e-014 1.10787 -16.65 -5.33129 -3.6336 22.4732 -0.132728 -1.82581 26.2754 21.5703 -8.17784 -1.42109e-014 0 37.6641 32.2208 0.08509 -30.104 0 0 -20.4861 -12.6156 52.4939 -24.4664 7.10543e-015 0 13.4519 -2.25138 1.93681 9.26261 0 2.84217e-014 9.42268 -26.1288 6.80363 0 -35.4897 1.42109e-014 -8.91509 15.6502 -0.615714 3.55271e-015 -38.2023 1.42109e-014 -1.02648 -9.80746 17.5891 3.55271e-015 -6.0207 13.8939 -1.59028e-015 0 3.18055e-015 -9.26261 -1.42109e-014 5.68434e-014 -0.066001 -12.8613 3.92307 7.10543e-015 -35.4897 2.84217e-014 -1.68626 31.5129 -2.547 0 -38.2023 0 -1.32972 -9.0481 6.01438 0 -6.0207 13.8939 1.98785e-016 6.36111e-015 -0 
